<?xml version="1.0" encoding="utf-8"?>
<!-- Generator: Adobe Illustrator 23.0.3, SVG Export Plug-In . SVG Version: 6.00 Build 0)  -->
<svg version="1.1" id="Layer_1" xmlns="http://www.w3.org/2000/svg" xmlns:xlink="http://www.w3.org/1999/xlink" x="0px" y="0px"
	 width="2011.9px" height="649.8px" viewBox="0 0 2011.9 649.8" style="enable-background:new 0 0 2011.9 649.8;"
	 xml:space="preserve">
<style type="text/css">
	.st0{fill:#FFFFFF;}
</style>
<g>
	<path class="st0" d="M638.7,303.2c12.5-7.2,24.9-14.7,37.1-22.5l0.5-0.3l0,0c45.4-29,87.8-61.1,118.5-86.5
		c8.4-6.9,16-13.5,22.8-19.4l22.2,17.2c-5.5,4.1-11.2,8.5-17,12.9c-20.4,15.4-31.8,24-35,26.4l-0.2,0.1
		c-12.2,9.2-14.7,26.5-5.5,38.7c9.2,12.2,26.5,14.7,38.7,5.5l0.2-0.1c16.2-12.1,28.7-21.5,35.1-26.4c10.7-8.1,26.1-19.8,44.2-33.6
		c67.8-51.7,150.4-115.8,191.8-151.1c7.9,7.4,16.9,16.2,26.6,25.5c8.4,8,17.1,16.4,25.7,24.6c-45.9,39.9-98.9,83.7-149.8,121.2
		c-12.3,9.1-14.9,26.4-5.9,38.8c9,12.3,26.3,15,38.7,5.9c81.7-60.3,167.6-135.4,223.5-186.5c13.1-11.9,22.6-20.7,29.1-26.8l0-0.1
		c0.8-0.7,1.6-1.5,2.4-2.2c41.5,35.4,123.7,99.2,191.3,150.7c18.1,13.8,33.5,25.5,44.2,33.6c6.4,4.8,18.9,14.2,35.1,26.4l0.2,0.1
		c12.2,9.2,29.5,6.7,38.7-5.5c9.2-12.2,6.7-29.5-5.5-38.7l-0.2-0.2c-3.2-2.4-14.5-10.9-35-26.4c-5.9-4.4-11.5-8.7-17-12.9l22.3-17.3
		c26.4,23,69.9,57.3,117.9,89.8l0,0l0.3,0.2c4.3,2.9,8.7,5.8,13,8.7c12.8,8.4,26.2,16.8,40,25c3.3,2,143.6,86.9,147,88.8l137.2,87
		v-60.9c0,0-261.7-166.1-263.3-167.1l-76.5-50.9c-44.1-31.8-79.9-61.7-94.7-76.4c-8.6-8.5-27-9.6-36.5-2.3l-49.3,38.3
		c-1,0.8-1.9,1.6-2.8,2.4c-76.5-58.6-164.6-127.3-187.6-149.9c-9.8-9.6-29.4-9.6-39.1,0.1l-0.1,0.1l0.1,0.1
		c-4.8,4.6-11.5,10.9-19.9,18.8l-0.1,0c-10.1,9.4-20,18.6-28.5,26.4c-8.5,7.8-17.7,16.1-27.5,24.8c-9.9-9.4-19.7-18.8-29-27.7
		c-19-18.3-36.2-34.8-46.9-43.9l0,0c-9.6-8.2-28.4-7.5-37.4,1.3c-23.1,22.6-111,91.3-187.6,149.9c-0.8-0.9-1.9-1.7-2.8-2.4
		l-49.3-38.3c-9.6-7.4-28.1-6.3-36.7,2.3l-0.1,0.1l0.1,0c-3.9,3.9-8.9,8.6-14.7,13.7c-6.1,5.4-13.6,11.8-22.1,18.8
		c-34.3,28.2-190.8,131.2-190.8,132.4L0,649.8h97.6L638.7,303.2z"/>
</g>
</svg>
